<?xml version="1.0" encoding="UTF-8" standalone="no"?>
<svg
   xmlns:dc="http://purl.org/dc/elements/1.1/"
   xmlns:cc="http://creativecommons.org/ns#"
   xmlns:rdf="http://www.w3.org/1999/02/22-rdf-syntax-ns#"
   xmlns:svg="http://www.w3.org/2000/svg"
   xmlns="http://www.w3.org/2000/svg"
   xmlns:sodipodi="http://sodipodi.sourceforge.net/DTD/sodipodi-0.dtd"
   xmlns:inkscape="http://www.inkscape.org/namespaces/inkscape"
   version="1.1"
   width="18"
   class="m-r-10"
   viewBox="0 0 32 32"
   id="svg4"
   sodipodi:docname="github-dark.svg"
   inkscape:version="0.92.4 5da689c313, 2019-01-14">
  <metadata
     id="metadata10">
    <rdf:RDF>
      <cc:Work
         rdf:about="">
        <dc:format>image/svg+xml</dc:format>
        <dc:type
           rdf:resource="http://purl.org/dc/dcmitype/StillImage" />
        <dc:title></dc:title>
      </cc:Work>
    </rdf:RDF>
  </metadata>
  <defs
     id="defs8" />
  <sodipodi:namedview
     pagecolor="#ffffff"
     bordercolor="#666666"
     borderopacity="1"
     objecttolerance="10"
     gridtolerance="10"
     guidetolerance="10"
     inkscape:pageopacity="0"
     inkscape:pageshadow="2"
     inkscape:window-width="2560"
     inkscape:window-height="1386"
     id="namedview6"
     showgrid="false"
     inkscape:zoom="7.375"
     inkscape:cx="9"
     inkscape:cy="15.728814"
     inkscape:window-x="0"
     inkscape:window-y="-20"
     inkscape:window-maximized="1"
     inkscape:current-layer="svg4" />
  <path
     fill="#ffffff"
     d="M16 0.4c-8.8 0-16 7.2-16 16 0 7.1 4.6 13.1 10.9 15.2 0.8 0.1 1.1-0.3 1.1-0.8 0-0.4 0-1.6 0-3-4.5 1-5.4-1.9-5.4-1.9-0.7-1.8-1.8-2.3-1.8-2.3-1.5-1 0.1-1 0.1-1 1.6 0.1 2.5 1.6 2.5 1.6 1.4 2.4 3.7 1.7 4.7 1.3 0.1-1 0.6-1.7 1-2.1-3.6-0.4-7.3-1.8-7.3-7.9 0-1.7 0.6-3.2 1.6-4.3-0.2-0.4-0.7-2 0.2-4.2 0 0 1.3-0.4 4.4 1.6 1.3-0.4 2.6-0.5 4-0.5 1.4 0 2.7 0.2 4 0.5 3.1-2.1 4.4-1.6 4.4-1.6 0.9 2.2 0.3 3.8 0.2 4.2 1 1.1 1.6 2.5 1.6 4.3 0 6.1-3.7 7.5-7.3 7.9 0.6 0.5 1.1 1.5 1.1 3 0 2.1 0 3.9 0 4.4 0 0.4 0.3 0.9 1.1 0.8 6.4-2.1 10.9-8.1 10.9-15.2 0-8.8-7.2-16-16-16z"
     id="path2"
     style="fill:#171717;fill-opacity:1" />
</svg>
